<svg width="19" height="18" viewBox="0 0 19 18" fill="none" xmlns="http://www.w3.org/2000/svg">
<path d="M15.1226 11.827L13.7086 10.413L15.1226 8.99903C15.494 8.62758 15.7887 8.18662 15.9897 7.7013C16.1907 7.21599 16.2942 6.69583 16.2942 6.17053C16.2942 5.64523 16.1907 5.12507 15.9897 4.63975C15.7887 4.15444 15.494 3.71347 15.1226 3.34203C14.7511 2.97058 14.3102 2.67594 13.8248 2.47491C13.3395 2.27389 12.8194 2.17042 12.2941 2.17042C11.7688 2.17042 11.2486 2.27389 10.7633 2.47491C10.278 2.67594 9.83702 2.97058 9.46557 3.34203L8.05157 4.75603L6.63757 3.34203L8.05157 1.92803C9.17989 0.817946 10.7011 0.198683 12.284 0.205128C13.8668 0.211573 15.3829 0.843204 16.5022 1.96244C17.6214 3.08167 18.253 4.59783 18.2595 6.18065C18.2659 7.76347 17.6467 9.28472 16.5366 10.413L15.1226 11.827ZM12.2936 14.656L10.8796 16.07C10.3241 16.6346 9.66233 17.0837 8.93244 17.3912C8.20255 17.6988 7.41899 17.8588 6.62696 17.862C5.83492 17.8653 5.05008 17.7116 4.31771 17.41C3.58535 17.1084 2.91994 16.6648 2.35988 16.1047C1.79982 15.5447 1.35619 14.8793 1.05458 14.1469C0.752972 13.4145 0.599348 12.6297 0.602574 11.8376C0.605799 11.0456 0.765809 10.262 1.07337 9.53216C1.38094 8.80228 1.82997 8.14051 2.39457 7.58503L3.80857 6.17103L5.22257 7.58503L3.80857 8.99903C3.43713 9.37047 3.14249 9.81144 2.94146 10.2968C2.74044 10.7821 2.63697 11.3022 2.63697 11.8275C2.63697 12.3528 2.74044 12.873 2.94146 13.3583C3.14249 13.8436 3.43713 14.2846 3.80857 14.656C4.18002 15.0275 4.62099 15.3221 5.1063 15.5231C5.59162 15.7242 6.11177 15.8276 6.63707 15.8276C7.16238 15.8276 7.68253 15.7242 8.16785 15.5231C8.65316 15.3221 9.09413 15.0275 9.46557 14.656L10.8796 13.242L12.2936 14.656ZM12.2936 4.75603L13.7086 6.17103L6.63757 13.241L5.22257 11.827L12.2936 4.75603Z" fill="#993F43"/>
</svg>
