<svg width="25" height="25" viewBox="0 0 25 25" fill="none" xmlns="http://www.w3.org/2000/svg">
<g clip-path="url(#clip0_1128_1005)">
<path d="M22.4405 6.76908C22.9166 8.62533 22.9166 12.5003 22.9166 12.5003C22.9166 12.5003 22.9166 16.3753 22.4405 18.2316C22.176 19.2576 21.402 20.0649 20.4218 20.3378C18.6416 20.8337 12.4999 20.8337 12.4999 20.8337C12.4999 20.8337 6.36138 20.8337 4.57804 20.3378C3.59367 20.0607 2.82075 19.2545 2.55929 18.2316C2.08325 16.3753 2.08325 12.5003 2.08325 12.5003C2.08325 12.5003 2.08325 8.62533 2.55929 6.76908C2.82388 5.74303 3.59784 4.93574 4.57804 4.66283C6.36138 4.16699 12.4999 4.16699 12.4999 4.16699C12.4999 4.16699 18.6416 4.16699 20.4218 4.66283C21.4062 4.93991 22.1791 5.74616 22.4405 6.76908ZM10.4166 16.1462L16.6666 12.5003L10.4166 8.85449V16.1462Z" fill="#BBBBBB"/>
</g>
<defs>
<clipPath id="clip0_1128_1005">
<rect width="25" height="25" fill="white"/>
</clipPath>
</defs>
</svg>
