<svg width="18" height="18" viewBox="0 0 18 18" fill="none" xmlns="http://www.w3.org/2000/svg">
<path d="M14.657 11.827L13.243 10.413L14.657 8.99903C15.0285 8.62758 15.3231 8.18662 15.5241 7.7013C15.7252 7.21599 15.8286 6.69583 15.8286 6.17053C15.8286 5.64523 15.7252 5.12507 15.5241 4.63975C15.3231 4.15444 15.0285 3.71347 14.657 3.34203C14.2856 2.97058 13.8446 2.67594 13.3593 2.47491C12.874 2.27389 12.3538 2.17042 11.8285 2.17042C11.3032 2.17042 10.7831 2.27389 10.2977 2.47491C9.81242 2.67594 9.37146 2.97058 9.00001 3.34203L7.58601 4.75603L6.17201 3.34203L7.58601 1.92803C8.71432 0.817946 10.2356 0.198683 11.8184 0.205128C13.4012 0.211573 14.9174 0.843204 16.0366 1.96244C17.1558 3.08167 17.7875 4.59783 17.7939 6.18065C17.8004 7.76347 17.1811 9.28472 16.071 10.413L14.657 11.827ZM11.828 14.656L10.414 16.07C9.85853 16.6346 9.19676 17.0837 8.46688 17.3912C7.73699 17.6988 6.95343 17.8588 6.16139 17.862C5.36936 17.8653 4.58452 17.7116 3.85215 17.41C3.11979 17.1084 2.45438 16.6648 1.89432 16.1047C1.33426 15.5447 0.890634 14.8793 0.589022 14.1469C0.287411 13.4145 0.133788 12.6297 0.137013 11.8376C0.140238 11.0456 0.300248 10.262 0.607813 9.53216C0.915378 8.80228 1.36441 8.14051 1.92901 7.58503L3.34301 6.17103L4.75701 7.58503L3.34301 8.99903C2.97157 9.37047 2.67692 9.81144 2.4759 10.2968C2.27488 10.7821 2.17141 11.3022 2.17141 11.8275C2.17141 12.3528 2.27488 12.873 2.4759 13.3583C2.67692 13.8436 2.97157 14.2846 3.34301 14.656C3.71446 15.0275 4.15543 15.3221 4.64074 15.5231C5.12605 15.7242 5.64621 15.8276 6.17151 15.8276C6.69681 15.8276 7.21697 15.7242 7.70229 15.5231C8.1876 15.3221 8.62857 15.0275 9.00001 14.656L10.414 13.242L11.828 14.656ZM11.828 4.75603L13.243 6.17103L6.17201 13.241L4.75701 11.827L11.828 4.75603Z" fill="#B3A8A8"/>
</svg>
